<svg xmlns="http://www.w3.org/2000/svg" width="38" height="352" viewBox="0 0 38 352"><svg xmlns:xlink="http://www.w3.org/1999/xlink" width="38" height="38"><path d="M34.798 21.428c-.076.5-.42.917-.896 1.086l-2.521.896c-.149.422-.319.834-.506 1.231l1.147 2.414c.217.455.165.993-.133 1.4a16.066 16.066 0 0 1-3.434 3.434 1.37 1.37 0 0 1-1.401.132l-2.413-1.146c-.397.188-.809.356-1.231.505l-.897 2.522a1.37 1.37 0 0 1-1.084.895c-.886.137-1.681.203-2.429.203s-1.543-.066-2.429-.203a1.37 1.37 0 0 1-1.084-.895l-.897-2.522a12.851 12.851 0 0 1-1.231-.505l-2.413 1.146a1.367 1.367 0 0 1-1.4-.132 16.048 16.048 0 0 1-3.435-3.434 1.372 1.372 0 0 1-.133-1.4l1.147-2.414a13.395 13.395 0 0 1-.506-1.231l-2.521-.896a1.37 1.37 0 0 1-.896-1.086C3.064 20.525 3 19.753 3 19s.064-1.524.202-2.427a1.37 1.37 0 0 1 .896-1.085l2.521-.897c.15-.422.319-.834.506-1.231l-1.147-2.414a1.371 1.371 0 0 1 .134-1.401 16.011 16.011 0 0 1 3.434-3.432c.407-.3.944-.35 1.4-.133l2.413 1.146c.397-.188.809-.356 1.231-.505l.897-2.522a1.371 1.371 0 0 1 1.084-.895c1.775-.273 3.086-.273 4.859 0 .499.077.914.42 1.083.895l.897 2.522c.423.149.834.317 1.231.505l2.413-1.146a1.367 1.367 0 0 1 1.401.133 16.034 16.034 0 0 1 3.434 3.432c.298.407.35.946.133 1.401l-1.147 2.414c.188.398.357.808.506 1.231l2.521.896c.476.169.821.586.896 1.086A15.8 15.8 0 0 1 35 19c0 .753-.064 1.525-.202 2.428zM19 14a5 5 0 1 0 .001 10.001A5 5 0 0 0 19 14z" stroke="#004eaa" stroke-width="2" fill="none"/></svg><svg xmlns:xlink="http://www.w3.org/1999/xlink" width="38" height="38" y="38"><path d="M34.798 21.428c-.076.5-.42.917-.896 1.086l-2.521.896c-.149.422-.319.834-.506 1.231l1.147 2.414c.217.455.165.993-.133 1.4a16.066 16.066 0 0 1-3.434 3.434 1.37 1.37 0 0 1-1.401.132l-2.413-1.146c-.397.188-.809.356-1.231.505l-.897 2.522a1.37 1.37 0 0 1-1.084.895c-.886.137-1.681.203-2.429.203s-1.543-.066-2.429-.203a1.37 1.37 0 0 1-1.084-.895l-.897-2.522a12.851 12.851 0 0 1-1.231-.505l-2.413 1.146a1.367 1.367 0 0 1-1.4-.132 16.048 16.048 0 0 1-3.435-3.434 1.372 1.372 0 0 1-.133-1.4l1.147-2.414a13.395 13.395 0 0 1-.506-1.231l-2.521-.896a1.37 1.37 0 0 1-.896-1.086C3.064 20.525 3 19.753 3 19s.064-1.524.202-2.427a1.37 1.37 0 0 1 .896-1.085l2.521-.897c.15-.422.319-.834.506-1.231l-1.147-2.414a1.371 1.371 0 0 1 .134-1.401 16.011 16.011 0 0 1 3.434-3.432c.407-.3.944-.35 1.4-.133l2.413 1.146c.397-.188.809-.356 1.231-.505l.897-2.522a1.371 1.371 0 0 1 1.084-.895c1.775-.273 3.086-.273 4.859 0 .499.077.914.42 1.083.895l.897 2.522c.423.149.834.317 1.231.505l2.413-1.146a1.367 1.367 0 0 1 1.401.133 16.034 16.034 0 0 1 3.434 3.432c.298.407.35.946.133 1.401l-1.147 2.414c.188.398.357.808.506 1.231l2.521.896c.476.169.821.586.896 1.086A15.8 15.8 0 0 1 35 19c0 .753-.064 1.525-.202 2.428zM19 14a5 5 0 1 0 .001 10.001A5 5 0 0 0 19 14z" stroke="#fff" stroke-width="2" fill="none"/></svg><svg xmlns:xlink="http://www.w3.org/1999/xlink" width="32" height="26" y="76"><path fill="#004eaa" d="M32 6.875V25a1 1 0 0 1-1 1H1a1 1 0 0 1-1-1V6.875c.001-.028-.004-.054 0-.082V1a1 1 0 0 1 1-1h30a1 1 0 0 1 1 1v5.793c.004.028-.001.054 0 .082zM2 24h28V8.577l-13.441 7.298c-.059.032-.123.039-.185.06-.057.021-.11.045-.171.056-.069.013-.135.009-.203.009s-.134.004-.203-.009c-.061-.011-.114-.035-.171-.056-.062-.021-.126-.028-.185-.06L2 8.577V24zM2 2v4.364l14 7.602 14-7.602V2H2z" fill-rule="evenodd"/></svg><svg xmlns:xlink="http://www.w3.org/1999/xlink" width="32" height="26" y="102"><path fill="#fff" d="M32 6.875V25a1 1 0 0 1-1 1H1a1 1 0 0 1-1-1V6.875c.001-.028-.004-.054 0-.082V1a1 1 0 0 1 1-1h30a1 1 0 0 1 1 1v5.793c.004.028-.001.054 0 .082zM2 24h28V8.577l-13.441 7.298c-.059.032-.123.039-.185.06-.057.021-.11.045-.171.056-.069.013-.135.009-.203.009s-.134.004-.203-.009c-.061-.011-.114-.035-.171-.056-.062-.021-.126-.028-.185-.06L2 8.577V24zM2 2v4.364l14 7.602 14-7.602V2H2z" fill-rule="evenodd"/></svg><svg xmlns:xlink="http://www.w3.org/1999/xlink" width="32" height="26" y="128"><path fill="#004eaa" d="M31 26H1a1 1 0 0 1-1-1V1a1 1 0 0 1 1-1h11.943c.296-.025.598.063.824.289l2 2 .711.711H31a1 1 0 0 1 1 1v21a1 1 0 0 1-1 1zM14.289 3.767L12.522 2H2v22h28V10h-9c-.139 0-.272-.029-.392-.08a1.03 1.03 0 0 1-.408-.242l-2-2-.491-.491-3.42-3.42zM30 5H18.478l1.2 1.2 1.8 1.8H30V5z" fill-rule="evenodd"/></svg><svg xmlns:xlink="http://www.w3.org/1999/xlink" width="32" height="26" y="154"><path fill="#fff" d="M31 26H1a1 1 0 0 1-1-1V1a1 1 0 0 1 1-1h11.943c.296-.025.598.063.824.289l2 2 .711.711H31a1 1 0 0 1 1 1v21a1 1 0 0 1-1 1zM14.289 3.767L12.522 2H2v22h28V10h-9c-.139 0-.272-.029-.392-.08a1.03 1.03 0 0 1-.408-.242l-2-2-.491-.491-3.42-3.42zM30 5H18.478l1.2 1.2 1.8 1.8H30V5z" fill-rule="evenodd"/></svg><svg xmlns:xlink="http://www.w3.org/1999/xlink" width="32" height="22" y="180"><path fill="#004eaa" d="M31.735 1.679l-9.999 9.999-.001.001-10.056 10.056a.841.841 0 0 1-.679.231.841.841 0 0 1-.679-.231L.265 11.679c-.348-.347-.312-.945.078-1.336.391-.39.989-.426 1.336-.079L11 19.586l9.321-9.322h.001L30.321.265c.347-.348.945-.312 1.336.078.39.391.426.989.078 1.336z" fill-rule="evenodd"/></svg><svg xmlns:xlink="http://www.w3.org/1999/xlink" width="32" height="22" y="202"><path fill="#fff" d="M31.735 1.679l-9.999 9.999-.001.001-10.056 10.056a.841.841 0 0 1-.679.231.841.841 0 0 1-.679-.231L.265 11.679c-.348-.347-.312-.945.078-1.336.391-.39.989-.426 1.336-.079L11 19.586l9.321-9.322h.001L30.321.265c.347-.348.945-.312 1.336.078.39.391.426.989.078 1.336z" fill-rule="evenodd"/></svg><svg xmlns:xlink="http://www.w3.org/1999/xlink" width="24" height="32" y="224"><path fill="#004eaa" d="M18 22.37V27a1 1 0 0 1-1 1H7a1 1 0 0 1-1-1v-4.63C2.418 20.296 0 16.438 0 12 0 5.373 5.373 0 12 0s12 5.373 12 12c0 4.438-2.418 8.296-6 10.37zM12 2C6.477 2 2 6.477 2 12c0 4.1 2.47 7.619 6 9.162V26h8v-4.838c3.53-1.543 6-5.062 6-9.162 0-5.523-4.477-10-10-10zm1 15.358V23a1 1 0 0 1-2 0v-5.642l-3.715-3.716a.959.959 0 1 1 1.357-1.357L12 15.642l3.358-3.357a.959.959 0 1 1 1.357 1.357L13 17.358zM9 30h6a1 1 0 0 1 0 2H9a1 1 0 0 1 0-2z" fill-rule="evenodd"/></svg><svg xmlns:xlink="http://www.w3.org/1999/xlink" width="24" height="32" y="256"><path fill="#fff" d="M18 22.37V27a1 1 0 0 1-1 1H7a1 1 0 0 1-1-1v-4.63C2.418 20.296 0 16.438 0 12 0 5.373 5.373 0 12 0s12 5.373 12 12c0 4.438-2.418 8.296-6 10.37zM12 2C6.477 2 2 6.477 2 12c0 4.1 2.47 7.619 6 9.162V26h8v-4.838c3.53-1.543 6-5.062 6-9.162 0-5.523-4.477-10-10-10zm1 15.358V23a1 1 0 0 1-2 0v-5.642l-3.715-3.716a.959.959 0 1 1 1.357-1.357L12 15.642l3.358-3.357a.959.959 0 1 1 1.357 1.357L13 17.358zM9 30h6a1 1 0 0 1 0 2H9a1 1 0 0 1 0-2z" fill-rule="evenodd"/></svg><svg xmlns:xlink="http://www.w3.org/1999/xlink" width="32" height="32" y="288"><path fill="#004eaa" d="M31 32H1a1 1 0 0 1-1-1V15a1 1 0 0 1 1-1h11V1a1 1 0 0 1 1-1h18a1 1 0 0 1 1 1v30a1 1 0 0 1-1 1zM12 16H2v2h10v-2zm0 4H2v10h10V20zM30 2H14v28h16V2zM20 6h4a1 1 0 0 1 0 2h-4a1 1 0 0 1 0-2zm0 6h4a1 1 0 0 1 0 2h-4a1 1 0 0 1 0-2zm0 6h4a1 1 0 0 1 0 2h-4a1 1 0 0 1 0-2zm0 6h4a1 1 0 0 1 0 2h-4a1 1 0 0 1 0-2zM5 24h4a1 1 0 0 1 0 2H5a1 1 0 0 1 0-2z" fill-rule="evenodd"/></svg><svg xmlns:xlink="http://www.w3.org/1999/xlink" width="32" height="32" y="320"><path fill="#fff" d="M31 32H1a1 1 0 0 1-1-1V15a1 1 0 0 1 1-1h11V1a1 1 0 0 1 1-1h18a1 1 0 0 1 1 1v30a1 1 0 0 1-1 1zM12 16H2v2h10v-2zm0 4H2v10h10V20zM30 2H14v28h16V2zM20 6h4a1 1 0 0 1 0 2h-4a1 1 0 0 1 0-2zm0 6h4a1 1 0 0 1 0 2h-4a1 1 0 0 1 0-2zm0 6h4a1 1 0 0 1 0 2h-4a1 1 0 0 1 0-2zm0 6h4a1 1 0 0 1 0 2h-4a1 1 0 0 1 0-2zM5 24h4a1 1 0 0 1 0 2H5a1 1 0 0 1 0-2z" fill-rule="evenodd"/></svg></svg>