<svg xmlns="http://www.w3.org/2000/svg" width="48" height="48"><path fill-rule="evenodd" fill="#99B8DD" d="M24 48C10.745 48 0 37.255 0 24S10.745 0 24 0s24 10.745 24 24-10.745 24-24 24zm0-46C11.85 2 2 11.85 2 24s9.85 22 22 22 22-9.85 22-22S36.15 2 24 2z"/><path fill-rule="evenodd" fill="#004EAA" d="M31.713 25.691l-6.958 6.959c-.017.02-.023.045-.042.063-.1.1-.218.165-.342.213l-.027.009a.962.962 0 0 1-.289.056c-.038.003-.073.006-.111.005a.984.984 0 0 1-.17-.034.95.95 0 0 1-.487-.249c-.02-.019-.027-.045-.044-.066l-6.956-6.956a.992.992 0 1 1 1.404-1.404L23 29.595V16a1 1 0 0 1 2 0v13.595l5.309-5.308a.992.992 0 1 1 1.404 1.404z"/></svg>