<svg 
 xmlns="http://www.w3.org/2000/svg"
 xmlns:xlink="http://www.w3.org/1999/xlink"
 width="38px" height="38px">
<path fill-rule="evenodd"  stroke-width="2px" stroke="rgb(0, 78, 170)" fill-opacity="0" fill="rgb(151, 45, 127)"
 d="M34.798,21.428 C34.722,21.928 34.378,22.345 33.902,22.514 L31.381,23.410 C31.232,23.832 31.062,24.244 30.875,24.641 L32.022,27.055 C32.239,27.510 32.187,28.048 31.889,28.455 C30.925,29.767 29.770,30.922 28.455,31.889 C28.048,32.187 27.510,32.239 27.054,32.021 L24.641,30.875 C24.244,31.063 23.832,31.231 23.410,31.380 L22.513,33.902 C22.344,34.377 21.928,34.721 21.429,34.797 C20.543,34.934 19.748,35.000 19.000,35.000 C18.252,35.000 17.457,34.934 16.571,34.797 C16.072,34.721 15.656,34.377 15.487,33.902 L14.590,31.380 C14.167,31.231 13.756,31.063 13.359,30.875 L10.946,32.021 C10.490,32.239 9.953,32.188 9.546,31.889 C8.232,30.924 7.077,29.769 6.111,28.455 C5.813,28.048 5.761,27.510 5.978,27.055 L7.125,24.641 C6.938,24.244 6.769,23.833 6.619,23.410 L4.098,22.514 C3.622,22.345 3.278,21.928 3.202,21.428 C3.064,20.525 3.000,19.753 3.000,19.000 C3.000,18.247 3.064,17.476 3.202,16.573 C3.278,16.074 3.622,15.657 4.098,15.488 L6.619,14.591 C6.769,14.169 6.938,13.757 7.125,13.360 L5.978,10.946 C5.761,10.491 5.813,9.952 6.112,9.545 C7.079,8.230 8.234,7.075 9.546,6.113 C9.953,5.813 10.490,5.763 10.946,5.980 L13.359,7.126 C13.756,6.938 14.168,6.770 14.590,6.621 L15.487,4.099 C15.656,3.624 16.072,3.281 16.571,3.204 C18.346,2.931 19.657,2.931 21.430,3.204 C21.929,3.281 22.344,3.624 22.513,4.099 L23.410,6.621 C23.833,6.770 24.244,6.938 24.641,7.126 L27.054,5.980 C27.510,5.762 28.047,5.813 28.455,6.113 C29.766,7.075 30.922,8.230 31.889,9.545 C32.187,9.952 32.239,10.491 32.022,10.946 L30.875,13.360 C31.063,13.758 31.232,14.168 31.381,14.591 L33.902,15.487 C34.378,15.656 34.723,16.073 34.798,16.573 C34.936,17.476 35.000,18.248 35.000,19.000 C35.000,19.753 34.936,20.525 34.798,21.428 ZM19.000,14.000 C16.239,14.000 14.000,16.239 14.000,19.000 C14.000,21.761 16.239,24.000 19.000,24.000 C21.761,24.000 24.000,21.761 24.000,19.000 C24.000,16.239 21.761,14.000 19.000,14.000 Z"/>
</svg>