<svg
 xmlns="http://www.w3.org/2000/svg"
 xmlns:xlink="http://www.w3.org/1999/xlink"
 width="32px" height="26px">
<path fill-rule="evenodd"  fill="#fff"
 d="M32.000,6.875 L32.000,25.000 C32.000,25.552 31.552,26.000 31.000,26.000 L1.000,26.000 C0.448,26.000 -0.000,25.552 -0.000,25.000 L-0.000,6.875 C0.001,6.847 -0.004,6.821 -0.000,6.793 L-0.000,1.000 C-0.000,0.448 0.448,0.000 1.000,0.000 L31.000,0.000 C31.552,0.000 32.000,0.448 32.000,1.000 L32.000,6.793 C32.004,6.821 31.999,6.847 32.000,6.875 ZM2.000,24.000 L30.000,24.000 L30.000,8.577 L16.559,15.875 C16.500,15.907 16.436,15.914 16.374,15.935 C16.317,15.956 16.264,15.980 16.203,15.991 C16.134,16.004 16.068,16.000 16.000,16.000 C15.932,16.000 15.866,16.004 15.797,15.991 C15.736,15.980 15.683,15.956 15.626,15.935 C15.564,15.914 15.500,15.907 15.441,15.875 L2.000,8.577 L2.000,24.000 ZM2.000,2.000 L2.000,6.364 L16.000,13.966 L30.000,6.364 L30.000,2.000 L2.000,2.000 Z"/>
</svg>
