<svg
 xmlns="http://www.w3.org/2000/svg"
 xmlns:xlink="http://www.w3.org/1999/xlink"
 width="32px" height="32px">
<path fill-rule="evenodd"  fill="#fff"
 d="M31.000,32.000 L1.000,32.000 C0.448,32.000 -0.000,31.552 -0.000,31.000 L-0.000,15.000 C-0.000,14.448 0.448,14.000 1.000,14.000 L12.000,14.000 L12.000,1.000 C12.000,0.448 12.448,0.000 13.000,0.000 L31.000,0.000 C31.552,0.000 32.000,0.448 32.000,1.000 L32.000,31.000 C32.000,31.552 31.552,32.000 31.000,32.000 ZM12.000,16.000 L2.000,16.000 L2.000,18.000 L12.000,18.000 L12.000,16.000 ZM12.000,20.000 L2.000,20.000 L2.000,30.000 L12.000,30.000 L12.000,20.000 ZM30.000,2.000 L14.000,2.000 L14.000,30.000 L30.000,30.000 L30.000,2.000 ZM20.000,6.000 L24.000,6.000 C24.552,6.000 25.000,6.448 25.000,7.000 C25.000,7.552 24.552,8.000 24.000,8.000 L20.000,8.000 C19.448,8.000 19.000,7.552 19.000,7.000 C19.000,6.448 19.448,6.000 20.000,6.000 ZM20.000,12.000 L24.000,12.000 C24.552,12.000 25.000,12.448 25.000,13.000 C25.000,13.552 24.552,14.000 24.000,14.000 L20.000,14.000 C19.448,14.000 19.000,13.552 19.000,13.000 C19.000,12.448 19.448,12.000 20.000,12.000 ZM20.000,18.000 L24.000,18.000 C24.552,18.000 25.000,18.448 25.000,19.000 C25.000,19.552 24.552,20.000 24.000,20.000 L20.000,20.000 C19.448,20.000 19.000,19.552 19.000,19.000 C19.000,18.448 19.448,18.000 20.000,18.000 ZM20.000,24.000 L24.000,24.000 C24.552,24.000 25.000,24.448 25.000,25.000 C25.000,25.552 24.552,26.000 24.000,26.000 L20.000,26.000 C19.448,26.000 19.000,25.552 19.000,25.000 C19.000,24.448 19.448,24.000 20.000,24.000 ZM5.000,24.000 L9.000,24.000 C9.552,24.000 10.000,24.448 10.000,25.000 C10.000,25.552 9.552,26.000 9.000,26.000 L5.000,26.000 C4.448,26.000 4.000,25.552 4.000,25.000 C4.000,24.448 4.448,24.000 5.000,24.000 Z"/>
</svg>
