<svg 
 xmlns="http://www.w3.org/2000/svg"
 xmlns:xlink="http://www.w3.org/1999/xlink"
 width="32px" height="26px">
<path fill-rule="evenodd"  fill="rgb(0, 78, 170)"
 d="M31.000,26.000 L1.000,26.000 C0.448,26.000 0.000,25.552 0.000,25.000 L0.000,1.000 C0.000,0.448 0.448,0.000 1.000,0.000 L12.943,0.000 C13.239,-0.025 13.541,0.063 13.767,0.289 L15.767,2.289 C15.767,2.289 15.767,2.289 15.767,2.289 L16.478,3.000 L31.000,3.000 C31.552,3.000 32.000,3.448 32.000,4.000 L32.000,25.000 C32.000,25.552 31.552,26.000 31.000,26.000 ZM14.289,3.767 L12.522,2.000 L2.000,2.000 L2.000,24.000 L30.000,24.000 L30.000,10.000 L21.000,10.000 C20.861,10.000 20.728,9.971 20.608,9.920 C20.460,9.870 20.318,9.796 20.200,9.678 L18.200,7.678 C18.200,7.678 18.200,7.678 18.200,7.678 L17.709,7.187 L14.289,3.767 C14.289,3.767 14.289,3.767 14.289,3.767 ZM30.000,5.000 L18.478,5.000 L19.678,6.200 C19.678,6.200 19.678,6.200 19.678,6.200 L21.478,8.000 L30.000,8.000 L30.000,5.000 Z"/>
</svg>