<svg 
 xmlns="http://www.w3.org/2000/svg"
 xmlns:xlink="http://www.w3.org/1999/xlink"
 width="32px" height="22px">
<path fill-rule="evenodd"  fill="rgb(0, 78, 170)"
 d="M31.735,1.679 L21.736,11.678 C21.736,11.679 21.736,11.679 21.735,11.679 L11.679,21.735 C11.499,21.915 11.251,21.988 11.000,21.966 C10.749,21.988 10.501,21.915 10.321,21.735 L0.265,11.679 C-0.083,11.332 -0.047,10.734 0.343,10.343 C0.734,9.953 1.332,9.917 1.679,10.264 L11.000,19.586 L20.321,10.264 C20.321,10.264 20.322,10.264 20.322,10.264 L30.321,0.265 C30.668,-0.083 31.266,-0.047 31.657,0.343 C32.047,0.734 32.083,1.332 31.735,1.679 Z"/>
</svg>