<svg
 xmlns="http://www.w3.org/2000/svg"
 xmlns:xlink="http://www.w3.org/1999/xlink"
 width="24px" height="32px">
<path fill-rule="evenodd"  fill="#fff"
 d="M18.000,22.370 L18.000,27.000 C18.000,27.552 17.552,28.000 17.000,28.000 L7.000,28.000 C6.448,28.000 6.000,27.552 6.000,27.000 L6.000,22.370 C2.418,20.296 0.000,16.438 0.000,12.000 C0.000,5.373 5.373,-0.000 12.000,-0.000 C18.627,-0.000 24.000,5.373 24.000,12.000 C24.000,16.438 21.582,20.296 18.000,22.370 ZM12.000,2.000 C6.477,2.000 2.000,6.477 2.000,12.000 C2.000,16.100 4.470,19.619 8.000,21.162 L8.000,22.000 L8.000,23.303 L8.000,26.000 L16.000,26.000 L16.000,23.303 L16.000,22.000 L16.000,21.162 C19.530,19.619 22.000,16.100 22.000,12.000 C22.000,6.477 17.523,2.000 12.000,2.000 ZM13.000,17.358 L13.000,23.000 C13.000,23.552 12.552,24.000 12.000,24.000 C11.448,24.000 11.000,23.552 11.000,23.000 L11.000,17.358 L7.285,13.642 C6.910,13.267 6.910,12.660 7.285,12.285 C7.660,11.910 8.267,11.910 8.642,12.285 L12.000,15.642 L15.358,12.285 C15.733,11.910 16.340,11.910 16.715,12.285 C17.090,12.660 17.090,13.267 16.715,13.642 L13.000,17.358 ZM9.000,30.000 L15.000,30.000 C15.552,30.000 16.000,30.448 16.000,31.000 C16.000,31.552 15.552,32.000 15.000,32.000 L9.000,32.000 C8.448,32.000 8.000,31.552 8.000,31.000 C8.000,30.448 8.448,30.000 9.000,30.000 Z"/>
</svg>
